<svg width="53" height="53" viewBox="0 0 53 53" fill="none" xmlns="http://www.w3.org/2000/svg">
<g id="Group">
<path id="Vector" d="M1.00316 51.9969L36.6988 16.3013M36.6988 16.3013H41.7982C44.503 16.3013 47.0971 15.2268 49.0098 13.3141C50.9224 11.4015 51.9969 8.80741 51.9969 6.10253V1.00316H46.8975C44.1927 1.00316 41.5986 2.07766 39.6859 3.9903C37.7733 5.90294 36.6988 8.49703 36.6988 11.2019V16.3013ZM4.7512 27.8514L8.65222 23.9503L12.5532 27.8514C14.2192 29.5239 15.1546 31.7884 15.1546 34.1491C15.1546 36.5098 14.2192 38.7743 12.5532 40.4468L8.65222 44.3478L4.7512 40.4468C3.08523 38.7743 2.14985 36.5098 2.14985 34.1491C2.14985 31.7884 3.08523 29.5239 4.7512 27.8514ZM14.9499 17.6526L18.851 13.7516L22.752 17.6526C24.418 19.3252 25.3533 21.5897 25.3533 23.9503C25.3533 26.311 24.418 28.5755 22.752 30.2481L18.851 34.1491L14.9499 30.2481C13.284 28.5755 12.3486 26.311 12.3486 23.9503C12.3486 21.5897 13.284 19.3252 14.9499 17.6526ZM25.1487 7.45387L29.0497 3.55284L32.9507 7.45387C34.6167 9.1264 35.5521 11.3909 35.5521 13.7516C35.5521 16.1123 34.6167 18.3768 32.9507 20.0493L29.0497 23.9503L25.1487 20.0493C23.4827 18.3768 22.5473 16.1123 22.5473 13.7516C22.5473 11.3909 23.4827 9.1264 25.1487 7.45387Z" stroke="#FB662F" stroke-width="2" stroke-linecap="round" stroke-linejoin="round"/>
<path id="Vector_2" d="M25.1487 40.4468L29.0497 44.3478L25.1487 48.2489C23.4762 49.9148 21.2117 50.8502 18.851 50.8502C16.4903 50.8502 14.2258 49.9148 12.5532 48.2489L8.65222 44.3478L12.5532 40.4468C14.2258 38.7808 16.4903 37.8455 18.851 37.8455C21.2117 37.8455 23.4762 38.7808 25.1487 40.4468ZM35.3475 30.2481L39.2485 34.1491L35.3475 38.0501C33.6749 39.7161 31.4104 40.6515 29.0497 40.6515C26.689 40.6515 24.4245 39.7161 22.752 38.0501L18.851 34.1491L22.752 30.2481C24.4245 28.5821 26.689 27.6467 29.0497 27.6467C31.4104 27.6467 33.6749 28.5821 35.3475 30.2481ZM45.5462 20.0493L49.4472 23.9503L45.5462 27.8514C43.8737 29.5173 41.6092 30.4527 39.2485 30.4527C36.8878 30.4527 34.6233 29.5173 32.9508 27.8514L29.0497 23.9503L32.9508 20.0493C34.6233 18.3833 36.8878 17.448 39.2485 17.448C41.6092 17.448 43.8737 18.3833 45.5462 20.0493Z" stroke="#FB662F" stroke-width="2" stroke-linecap="round" stroke-linejoin="round"/>
</g>
</svg>
