<svg width="30" height="30" viewBox="0 0 30 30" fill="none" xmlns="http://www.w3.org/2000/svg">
<g id="f7:doc-plaintext">
<path id="Vector" d="M8.33293 28.4599H21.6669C24.2661 28.4599 25.5594 27.1544 25.5594 24.5299V5.4826C25.5594 2.871 24.2661 1.54028 21.6669 1.54028H8.33293C5.7465 1.54028 4.44043 2.871 4.44043 5.48314V24.5299C4.44043 27.1539 5.7465 28.4599 8.33293 28.4599ZM8.43311 26.4387C7.13989 26.4387 6.46168 25.7476 6.46168 24.4924V5.52064C6.46168 4.27778 7.13989 3.56153 8.44597 3.56153H21.5667C22.8722 3.56153 23.5381 4.26493 23.5381 5.52064V24.4924C23.5381 25.7476 22.8722 26.4387 21.579 26.4387H8.43311ZM10.254 8.80993H19.771C20.2102 8.80993 20.5494 8.4585 20.5494 8.01921C20.5494 7.59225 20.2108 7.266 19.771 7.266H10.254C9.789 7.266 9.46275 7.59225 9.46275 8.01921C9.46275 8.4585 9.78954 8.80993 10.254 8.80993ZM10.254 13.1921H19.771C20.2102 13.1921 20.5494 12.8406 20.5494 12.4008C20.5494 11.9744 20.2108 11.6476 19.771 11.6476H10.254C9.789 11.6476 9.46275 11.9744 9.46275 12.4008C9.46275 12.8401 9.78954 13.1921 10.254 13.1921ZM10.254 17.5742H14.7615C15.2008 17.5742 15.5399 17.2351 15.5399 16.8081C15.5399 16.3689 15.2008 16.0297 14.7615 16.0297H10.2535C9.78847 16.0297 9.46222 16.3689 9.46222 16.8081C9.46222 17.2351 9.789 17.5742 10.2535 17.5742" fill="black"/>
</g>
</svg>
