<svg width="61" height="61" viewBox="0 0 61 61" fill="none" xmlns="http://www.w3.org/2000/svg">
<g id="cbi:spicebottle">
<path id="Vector" d="M44.0369 33.1231C43.0292 30.889 42.1376 28.6044 41.3656 26.2784C40.9564 25.0584 40.9081 24.7889 41.0275 24.7534C41.2659 24.5965 41.4829 24.4094 41.6731 24.1967C42.0365 23.8843 42.2842 23.4588 42.3764 22.9885C42.4686 22.5183 42.4 22.0307 42.1815 21.6042C41.999 21.1821 41.6986 20.8215 41.3163 20.5659C40.934 20.3102 40.486 20.1704 40.0261 20.1631H39.65V19.2862C39.65 18.4424 39.65 18.4144 39.927 18.2543C40.4154 17.9402 40.7938 17.4818 41.0098 16.9428C41.1699 16.5056 41.2639 16.4167 41.8256 16.1091C42.5212 15.772 43.0814 15.2082 43.4142 14.5104C43.6265 14.0688 43.7144 13.5775 43.6683 13.0896V12.2153H43.9962C44.207 12.2099 44.408 12.1253 44.5592 11.9783C44.7104 11.8313 44.8007 11.6328 44.8121 11.4223C44.7976 11.2354 44.7244 11.0578 44.603 10.9149C44.4816 10.7721 44.3182 10.6712 44.136 10.6268C43.9581 10.6268 43.9479 10.5683 43.986 9.55419C44.047 8.28336 43.9479 7.83602 43.4777 7.2794C42.4611 6.09752 39.8914 5.44177 35.1741 5.16473C33.2678 5.05544 25.0837 5.05544 23.5536 5.16473C21.4342 5.06562 19.3492 5.72728 17.6747 7.03032C17.08 7.69623 16.9605 8.15373 17.019 9.52369C17.0698 10.5581 17.0596 10.6166 16.8792 10.6166C16.5818 10.6166 16.2056 11.0639 16.2056 11.4121C16.2148 11.6248 16.3054 11.8258 16.4587 11.9734C16.612 12.1211 16.8163 12.204 17.0291 12.2051H17.3595L17.3087 12.7414C17.2685 13.2267 17.332 13.715 17.495 14.1738C17.658 14.6326 17.9168 15.0515 18.2542 15.4026C18.5451 15.6437 18.8535 15.8629 19.1768 16.0583C19.7436 16.3964 19.8428 16.5158 20.0003 16.9326C20.219 17.4731 20.6011 17.9316 21.0933 18.2441C21.3474 18.4043 21.3627 18.4322 21.3627 19.2761V20.1504H21.0043C20.6874 20.1455 20.3733 20.2096 20.0836 20.3382C19.7939 20.4667 19.5357 20.6568 19.3268 20.8951C18.9964 21.1824 18.76 21.5623 18.6481 21.9856C18.5361 22.4088 18.5539 22.856 18.699 23.269C18.9737 23.8396 19.3958 24.3266 19.9215 24.6796C20.1096 24.7889 20.0995 24.8499 19.4945 26.6672C18.6999 29.0275 17.782 31.3445 16.7445 33.6085C15.1901 36.267 14.457 39.3259 14.6374 42.4001C14.5789 44.5425 15.0137 46.6696 15.9083 48.6171C16.5474 50.0194 17.6532 51.1566 19.037 51.8348C19.461 52.0154 19.8088 52.338 20.0207 52.7473C20.8861 54.0937 22.1704 55.1181 23.6756 55.6626L24.4381 55.9167H30.4873C32.7317 56.1189 34.9924 56.0489 37.2201 55.7083C38.7642 55.1685 40.0849 54.1304 40.9742 52.7574C41.1292 52.4943 41.3199 52.254 41.541 52.0432C42.4015 51.6665 43.179 51.1232 43.8285 50.4445C45.6837 48.1964 46.5948 45.3164 46.3701 42.4103C46.4693 39.0019 46.2227 37.9904 44.0369 33.1231ZM39.9855 21.7516C40.0972 21.7478 40.2083 21.7686 40.3111 21.8125C40.4139 21.8565 40.5058 21.9224 40.5802 22.0058C40.6947 22.1174 40.7723 22.2613 40.8025 22.4182C40.8328 22.5751 40.8143 22.7375 40.7496 22.8837C40.6848 23.0298 40.5769 23.1526 40.4403 23.2355C40.3037 23.3185 40.145 23.3577 39.9855 23.3478H39.65V21.7516H39.9855ZM18.5795 9.20598C18.5795 8.20457 18.7092 7.98598 19.5251 7.60727C21.005 7.05469 22.5666 6.75234 24.1458 6.71261C24.4 6.69482 27.1145 6.69482 30.2026 6.71261C34.4853 6.74311 36.1323 6.78377 37.1566 6.90323C38.8674 6.94593 40.5456 7.3807 42.062 8.17407C42.4204 8.46127 42.4204 8.47144 42.4204 9.20598C42.4204 9.94052 42.3213 10.2887 42.034 10.5073C41.9146 10.6064 39.2916 10.6268 30.5228 10.6369H19.1565L18.8693 10.3497C18.5999 10.06 18.5795 10.0015 18.5795 9.20598ZM20.0207 14.7189C19.6365 14.5537 19.3163 14.2683 19.1082 13.9055C18.9514 13.6952 18.8682 13.4392 18.8714 13.1769C18.8747 12.9146 18.9641 12.6606 19.126 12.4542L19.3649 12.2001H41.6325L41.8714 12.4542C42.0289 12.6601 42.1167 12.9107 42.1222 13.1698C42.1277 13.4289 42.0505 13.6831 41.9019 13.8954C41.7128 14.2591 41.404 14.5464 41.0275 14.7087C40.7011 14.8472 40.4055 15.0493 40.1581 15.3033C39.9107 15.5572 39.7163 15.858 39.5864 16.1879C39.2992 17.0419 40.0541 16.9733 30.5 16.9733C27.5999 17.1222 24.693 17.0721 21.7998 16.8234C21.6002 16.6219 21.4558 16.3724 21.3805 16.099C21.1339 15.4229 20.9458 15.2501 20.0207 14.7189ZM30.5 23.3402H22.9512V21.7516H38.0487V23.3402H30.5ZM38.0487 24.9287V25.8717C38.0487 26.746 38.0284 26.8451 37.7945 27.0637L37.5556 27.3179H23.4367L23.2003 27.0637C22.9715 26.8451 22.9461 26.746 22.9461 25.8717V24.9287H38.0436H38.0487ZM30.5 20.1606H22.9512V19.3676H38.0487V20.1606H30.5ZM21.0145 21.7516H21.35V23.3402H21.0145C20.9064 23.3463 20.7982 23.3303 20.6965 23.2931C20.5948 23.256 20.5018 23.1985 20.4231 23.1241C20.3444 23.0498 20.2817 22.9601 20.2389 22.8607C20.1961 22.7613 20.174 22.6542 20.174 22.5459C20.174 22.4377 20.1961 22.3305 20.2389 22.2311C20.2817 22.1317 20.3444 22.0421 20.4231 21.9677C20.5018 21.8934 20.5948 21.8358 20.6965 21.7987C20.7982 21.7615 20.9064 21.7455 21.0145 21.7516ZM18.1348 34.4142C19.1452 32.1783 20.0627 29.9016 20.8848 27.5899L21.3118 26.319L21.3805 26.746C21.4231 27.0197 21.4999 27.287 21.6092 27.5416C21.933 28.0981 22.4329 28.5309 23.03 28.7717C23.3172 28.8607 25.3633 28.8912 30.5203 28.8912C38.6028 28.8912 38.2266 28.9319 38.9713 28.0982C39.3763 27.6798 39.6164 27.1292 39.6474 26.5478C39.6474 26.3699 39.8558 26.8451 40.1735 27.75C40.9694 29.9884 41.8572 32.1931 42.8347 34.3583C43.4116 35.6291 43.9759 36.961 44.1055 37.2889C44.5022 38.1783 44.6892 39.1471 44.652 40.1203C43.7094 39.5541 42.8308 38.8877 42.0315 38.1327C42.0695 37.9764 42.1223 37.8241 42.1891 37.6777C42.3053 37.4105 42.3464 37.1165 42.3078 36.8276C42.2693 36.5387 42.1527 36.2658 41.9705 36.0384C41.6223 35.6698 41.3554 35.5504 40.1913 35.2759L39.2967 35.0573L38.3029 34.0838C37.6257 33.2935 36.7713 32.6743 35.8095 32.2767C35.2497 32.1108 34.6572 32.0884 34.0865 32.2114C33.5158 32.3344 32.9852 32.599 32.5435 32.9807C32.2441 33.1661 31.9353 33.3358 31.6183 33.4891C31.57 33.5094 31.3209 33.2349 31.0642 32.9045C30.8051 32.4761 30.4367 32.1243 29.9967 31.8854C29.5567 31.6464 29.0611 31.5288 28.5607 31.5447C28.2793 31.634 28.019 31.7793 27.7953 31.972C27.5716 32.1646 27.3893 32.4005 27.2593 32.6656L26.9721 33.1536C26.6654 33.1039 26.3629 33.0308 26.0673 32.935C25.1761 32.6419 24.2451 32.4876 23.307 32.4775C22.8091 32.4471 22.3137 32.5686 21.8863 32.8257C20.8696 33.334 19.8707 34.3151 16.7801 37.7896C17.1151 36.6211 17.5691 35.4901 18.1348 34.4142ZM28.8098 49.56C28.5529 49.3163 28.2586 49.1155 27.938 48.9653C26.5057 48.3039 25.3917 47.1049 24.8371 45.6281C24.6379 44.9103 24.5912 44.1588 24.6999 43.4219C24.7685 43.1677 24.6287 43.1347 26.5273 43.8006C27.2619 44.0548 28.4336 44.5047 29.1275 44.802L30.3983 45.3383L30.3373 45.9356C30.3551 46.849 30.5832 47.746 31.0037 48.557C31.4242 49.3681 32.0259 50.0713 32.7621 50.6123L33.3771 51.1384L32.8103 51.2096C31.4623 51.2782 30.1109 51.2015 28.7793 50.9808C27.9532 50.8309 27.9049 50.8105 28.2226 50.7419C28.3506 50.7229 28.4721 50.6733 28.5767 50.5973C28.6814 50.5213 28.7661 50.4212 28.8238 50.3054C28.8814 50.1896 28.9103 50.0616 28.9078 49.9322C28.9054 49.8029 28.8717 49.6736 28.8098 49.56ZM29.8645 38.9816C30.3622 39.0732 30.8557 39.186 31.3438 39.3196L31.9385 39.5103H30.9473C29.6017 39.4225 28.2752 39.8649 27.2517 40.743C26.9826 40.9916 26.7484 41.2754 26.5553 41.5868C26.418 41.8257 26.2478 41.9935 26.1893 41.9757C24.9364 41.5937 23.6781 41.2294 22.4149 40.8828L21.5304 40.6667L22.0388 40.2982C23.1275 39.5683 24.3793 39.1179 25.6835 38.9867C27.0713 38.8079 28.4763 38.8062 29.8645 38.9816ZM28.6217 33.4713L28.9191 33.0621L29.219 33.2806C29.4474 33.4623 29.6509 33.6734 29.8239 33.9084C30.4974 34.875 30.9329 35.9872 31.0947 37.1541C31.115 37.4719 31.0947 37.5811 30.9956 37.5634C30.5889 37.4719 28.8987 37.2456 28.6318 37.2456C28.365 37.2456 28.304 37.1948 28.2048 36.9178C28.0322 36.3457 27.9802 35.744 28.0519 35.1508C28.1236 34.5576 28.3177 33.9857 28.6217 33.4713ZM21.899 42.4103C22.5547 42.5781 23.0986 42.7077 23.1088 42.7077C23.119 42.7077 23.1088 43.216 23.0808 43.8184C23.0085 45.1834 23.3548 46.5379 24.0734 47.7008C24.792 48.8636 25.8486 49.7792 27.1018 50.3251C27.8973 50.7927 27.788 50.8029 26.7739 50.3835C25.4689 49.9809 24.2592 49.3177 23.2181 48.4338C22.177 47.55 21.3262 46.464 20.7171 45.2417C20.4835 44.3574 20.4291 43.4354 20.557 42.5298C20.5914 42.3871 20.6382 42.2476 20.6968 42.1129L21.899 42.4103ZM28.6928 42.9186L27.8287 42.5908L27.9964 42.2934C28.3845 41.7866 28.9343 41.4278 29.5545 41.2767C30.1855 41.1232 30.8393 41.0862 31.4836 41.1674C32.7824 41.2183 32.8129 41.2183 33.0416 40.9895C33.1876 40.8442 33.273 40.6489 33.2806 40.4431C33.2806 40.2855 33.311 40.1457 33.339 40.1457C33.5733 40.2504 33.7993 40.3728 34.0151 40.5117C34.9501 41.0947 35.8313 41.7599 36.6483 42.4993L37.2735 43.0762L36.4475 43.094C35.2125 43.1155 34.0232 43.5646 33.0823 44.3649L32.6655 44.6927L31.115 43.976C30.3212 43.5894 29.5132 43.2324 28.6928 42.9059V42.9186ZM33.1204 34.4854C34.681 33.5424 34.9886 33.5018 35.9417 34.1397L36.5085 34.5159L36.0001 34.6049C34.9957 34.7305 34.0157 35.0055 33.0925 35.4207L32.4647 35.7486L32.3656 35.5097C32.2181 35.0598 32.2791 34.981 33.1204 34.4727V34.4854ZM36.9838 40.6667L36.5466 40.3084C35.4344 39.4478 34.212 38.74 32.912 38.2039C32.635 38.1149 32.6248 38.0056 32.884 37.5964C33.2017 37.2243 33.5897 36.9186 34.0259 36.697C34.4621 36.4754 34.9379 36.3423 35.4257 36.3052C36.1948 36.1202 36.9987 36.1377 37.759 36.3561C38.7445 36.5416 39.7194 36.78 40.6793 37.0703C40.8776 37.2787 38.2571 39.9805 37.4209 40.4176L36.9838 40.6667ZM16.226 42.4459L16.1777 40.9565L17.0723 39.8839C18.6553 37.7627 20.5076 35.8565 22.5827 34.2134C23.1882 34.0232 23.8342 34.0021 24.4508 34.1524C24.7482 34.2134 25.3048 34.3507 25.6911 34.46L26.4079 34.6684L26.4562 35.7334C26.4693 36.159 26.5092 36.5835 26.5756 37.0042C26.6366 37.1923 26.6061 37.2228 26.3215 37.2711C24.6958 37.3998 23.1138 37.8599 21.6728 38.6232C21.0205 39.0073 20.442 39.5048 19.9648 40.0923L19.8148 40.3211L18.882 40.1609C18.4969 40.0969 18.1094 40.0478 17.7205 40.0135C17.5321 40.0453 17.3596 40.1387 17.2299 40.2789C17.1003 40.4192 17.0207 40.5985 17.0037 40.7887C17.0037 41.3149 17.2731 41.5131 18.1958 41.6605C18.4885 41.6955 18.7776 41.7559 19.0599 41.841C19.0712 41.9859 19.0512 42.1315 19.0015 42.268C18.8322 43.2467 18.8624 44.2496 19.0904 45.2163C19.4195 46.5243 20.1268 47.7062 21.1238 48.6145C22.1216 49.6384 23.2916 50.4789 24.5804 51.0977C24.9031 51.2368 25.2064 51.417 25.4827 51.634C25.4243 51.634 24.888 51.5832 24.2932 51.5247C18.4016 50.9605 16.4649 48.7848 16.226 42.4459ZM37.3625 53.9495L36.7169 54.2774H24.283L23.6375 53.9495C22.9614 53.6114 21.9473 52.7879 22.3056 52.8769C22.4149 52.9074 22.8623 52.976 23.2994 53.037C28.424 53.4863 33.5802 53.4327 38.6943 52.8769C39.0501 52.7879 38.0385 53.6114 37.3625 53.9495ZM39.2891 50.6936C38.9917 50.7419 34.2235 51.1486 34.0253 51.1486C34.0049 51.1486 34.0939 51.0393 34.2235 50.8944C34.6912 50.4369 34.5819 50.1776 33.4991 49.0847C32.6893 48.4375 32.1311 47.5277 31.9208 46.5126L31.8598 46.0474L32.8434 46.5736C34.6722 47.5698 36.4218 48.705 38.0767 49.9692C38.6536 50.4166 39.04 50.4572 39.3882 50.0989C39.7364 49.7405 39.7262 49.3033 39.2382 48.8661C38.0093 47.9062 36.7262 47.0176 35.3952 46.205C34.999 45.9999 34.6316 45.7435 34.3023 45.4425C34.7862 45.0749 35.3464 44.8204 35.9417 44.6978C36.3506 44.6328 36.7678 44.6397 37.1744 44.7181C37.8098 44.8173 37.8784 44.8173 38.1275 44.619L38.3944 44.4208L38.5647 44.6292C38.6638 44.7486 38.9815 45.2061 39.2687 45.6459C40.1426 46.7632 40.7447 48.0684 41.0275 49.4584C41.0275 50.137 40.4811 50.5233 39.2891 50.6936ZM44.7613 43.094C44.682 44.3049 44.4888 45.5057 44.1843 46.6803C43.9052 47.5556 43.4751 48.3754 42.9135 49.1025L42.6364 49.3719L42.5653 48.9754C41.8349 46.5216 40.5356 44.2749 38.7731 42.4179L38.2368 41.8334L38.7629 41.447C39.04 41.2284 39.6551 40.6845 40.1227 40.2448C40.5904 39.8051 40.9767 39.4391 40.997 39.4289C41.0174 39.4188 41.3046 39.6679 41.6426 39.9551C42.5631 40.6809 43.5283 41.3481 44.5325 41.9528L44.8197 42.1307L44.7613 43.094Z" fill="#FB662F"/>
</g>
</svg>
