<svg width="45" height="44" viewBox="0 0 45 44" fill="none" xmlns="http://www.w3.org/2000/svg">
<g id="Group">
<path id="Vector" fill-rule="evenodd" clip-rule="evenodd" d="M3.35158 11.0628C5.34643 9.00129 7.34128 8.31412 10.0002 9.68847C12.3951 10.9256 13.7117 11.0487 14.9207 11.0615C16.1809 11.0487 17.5514 10.9256 20.0463 9.68847C22.8155 8.31412 24.8924 9.00129 26.9706 11.0628C29.4193 13.4936 30.1757 16.0243 30.4334 17.9358C30.4633 18.0897 30.4902 18.2435 30.5141 18.3974C29.6875 18.6386 28.9478 19.1125 28.3831 19.7626C27.8184 20.4126 27.4526 21.2114 27.3294 22.0636C27.2061 22.9158 27.3306 23.7855 27.688 24.5689C28.0454 25.3523 28.6205 26.0163 29.3449 26.4819L29.2436 26.7421C28.7359 26.3827 28.1589 26.1328 27.5495 26.0082C26.94 25.8837 26.3112 25.8872 25.7032 26.0186C25.0951 26.15 24.521 26.4064 24.0174 26.7715C23.5137 27.1366 23.0915 27.6025 22.7774 28.1395C22.4634 28.6766 22.2645 29.273 22.1933 29.891C22.1222 30.509 22.1803 31.1351 22.3639 31.7294C22.5476 32.3238 22.8529 32.8734 23.2604 33.3435C23.6678 33.8136 24.1686 34.1938 24.7309 34.46C24.6095 34.6104 24.4911 34.7519 24.3757 34.8844C23.3052 35.9985 22.0873 36.7126 20.7668 36.4946C16.613 35.8062 15.9207 35.8062 15.2284 35.8062H14.6258C13.9617 35.8062 13.2963 35.8062 9.30793 36.4946C6.11565 37.0433 3.55157 31.6831 2.27979 28.9357C0.279813 24.6242 -0.118901 20.2178 0.0272512 17.9358C0.274685 16.023 1.0016 13.4936 3.35158 11.0641" fill="#FB662F"/>
<path id="Vector_2" fill-rule="evenodd" clip-rule="evenodd" d="M39.5447 12.9345C40.9848 13.4512 42.1607 14.5188 42.8137 15.9025C43.4667 17.2861 43.5433 18.8725 43.0268 20.3126C42.9849 20.4263 42.9306 20.5301 42.8639 20.6242C43.9105 21.5239 44.5998 22.769 44.8068 24.1336C45.0138 25.4981 44.7247 26.8916 43.9921 28.0613C43.6325 28.6351 43.1747 29.1411 42.6396 29.5561C42.6575 29.7442 42.6665 29.9343 42.6665 30.1266C42.6671 31.0845 42.4291 32.0273 41.9742 32.8702C42.6887 33.2564 43.3136 33.7892 43.808 34.4335C44.3024 35.0779 44.6551 35.8194 44.8432 36.6096C45.0312 37.3997 45.0503 38.2206 44.8992 39.0186C44.7481 39.8166 44.4302 40.5738 43.9664 41.2404C43.5025 41.9071 42.903 42.4683 42.2073 42.8874C41.5115 43.3064 40.7352 43.5738 39.9289 43.6721C39.1227 43.7704 38.3048 43.6974 37.5288 43.4577C36.7527 43.2181 36.036 42.8174 35.4255 42.2816C34.4506 43.0811 33.2406 43.5391 31.9807 43.5857C30.7207 43.6323 29.4802 43.2648 28.4489 42.5396C27.4176 41.8143 26.6522 40.7712 26.27 39.5697C25.8877 38.3683 25.9095 37.0747 26.332 35.8868C24.8578 35.8075 23.47 35.166 22.4544 34.0943C21.4389 33.0227 20.8728 31.6024 20.8728 30.126C20.8728 28.6496 21.4389 27.2293 22.4544 26.1577C23.47 25.086 24.8578 24.4445 26.332 24.3652C26.0133 23.4681 25.9215 22.5061 26.0649 21.565C26.2082 20.6238 26.5823 19.7328 27.1536 18.9713C27.7249 18.2098 28.4758 17.6016 29.3393 17.2008C30.2028 16.7999 31.1521 16.6191 32.1025 16.6742C32.1145 16.5879 32.1358 16.5016 32.1666 16.4152C32.6836 14.9754 33.7513 13.7998 35.1349 13.147C36.5185 12.4943 38.1048 12.4178 39.5447 12.9345ZM37.0024 40.2509C37.3465 40.5829 37.7606 40.8337 38.2141 40.9849C38.6677 41.1362 39.1494 41.184 39.6239 41.1249C40.0984 41.0658 40.5536 40.9013 40.9563 40.6435C41.3589 40.3857 41.6988 40.041 41.951 39.6348C42.2032 39.2285 42.3613 38.771 42.4137 38.2958C42.4661 37.8205 42.4115 37.3395 42.2539 36.8881C42.0964 36.4367 41.8398 36.0262 41.503 35.6868C41.1662 35.3474 40.7577 35.0877 40.3075 34.9266C40.2639 34.911 40.2211 34.893 40.1793 34.8727C39.3268 35.4625 38.3076 35.8292 37.2076 35.8881C37.4217 36.4907 37.5383 37.142 37.5383 37.8189C37.5383 38.6881 37.346 39.5112 37.0024 40.2509ZM37.2076 24.3664C38.0986 24.4141 38.9664 24.6678 39.7428 25.1076C40.5191 25.5474 41.1829 26.1613 41.6819 26.901C41.9863 26.4884 42.1872 26.0087 42.2678 25.5023C42.3623 24.9077 42.2875 24.2984 42.0518 23.7443C41.816 23.1902 41.429 22.7138 40.935 22.3695C40.441 22.0252 39.86 21.8271 39.2586 21.7977C38.6572 21.7684 38.0597 21.9091 37.5345 22.2036C37.5643 22.9384 37.4533 23.6734 37.2076 24.3664ZM36.8448 19.6883C38.0379 19.1813 39.367 19.091 40.6178 19.4319C40.9002 18.6318 40.8538 17.7525 40.4889 16.9865C40.124 16.2206 39.4703 15.6306 38.6711 15.3459C37.8719 15.0612 36.9924 15.1049 36.2254 15.4676C35.4584 15.8303 34.8665 16.4822 34.5794 17.2806L34.5422 17.3729C35.5167 17.9069 36.3162 18.7109 36.8448 19.6883ZM31.7692 19.2293C30.9191 19.2293 30.1039 19.567 29.5028 20.1681C28.9017 20.7691 28.5641 21.5844 28.5641 22.4344C28.5641 23.2844 28.9017 24.0997 29.5028 24.7007C30.1039 25.3018 30.9191 25.6395 31.7692 25.6395C32.6192 25.6395 33.4344 25.3018 34.0355 24.7007C34.6366 24.0997 34.9743 23.2844 34.9743 22.4344C34.9743 21.5844 34.6366 20.7691 34.0355 20.1681C33.4344 19.567 32.6192 19.2293 31.7692 19.2293ZM26.641 26.9215C25.791 26.9215 24.9757 27.2592 24.3747 27.8603C23.7736 28.4614 23.4359 29.2766 23.4359 30.1266C23.4359 30.9767 23.7736 31.7919 24.3747 32.393C24.9757 32.9941 25.791 33.3317 26.641 33.3317C27.4911 33.3317 28.3063 32.9941 28.9074 32.393C29.5084 31.7919 29.8461 30.9767 29.8461 30.1266C29.8461 29.2766 29.5084 28.4614 28.9074 27.8603C28.3063 27.2592 27.4911 26.9215 26.641 26.9215ZM33.6922 30.1266C33.6922 29.2766 34.0299 28.4614 34.631 27.8603C35.2321 27.2592 36.0473 26.9215 36.8973 26.9215C37.7474 26.9215 38.5626 27.2592 39.1637 27.8603C39.7647 28.4614 40.1024 29.2766 40.1024 30.1266C40.1024 30.9767 39.7647 31.7919 39.1637 32.393C38.5626 32.9941 37.7474 33.3317 36.8973 33.3317C36.0473 33.3317 35.2321 32.9941 34.631 32.393C34.0299 31.7919 33.6922 30.9767 33.6922 30.1266ZM31.7692 34.6138C30.9191 34.6138 30.1039 34.9515 29.5028 35.5525C28.9017 36.1536 28.5641 36.9688 28.5641 37.8189C28.5641 38.6689 28.9017 39.4842 29.5028 40.0852C30.1039 40.6863 30.9191 41.024 31.7692 41.024C32.6192 41.024 33.4344 40.6863 34.0355 40.0852C34.6366 39.4842 34.9743 38.6689 34.9743 37.8189C34.9743 36.9688 34.6366 36.1536 34.0355 35.5525C33.4344 34.9515 32.6192 34.6138 31.7692 34.6138ZM0.724595 0H2.17714C5.81814 0 9.24631 1.63716 11.7488 3.81022C12.5623 4.51406 13.2996 5.30126 13.9488 6.15892V3.28843C13.9488 2.94841 14.0839 2.62232 14.3243 2.38189C14.5648 2.14146 14.8908 2.00639 15.2309 2.00639C15.5709 2.00639 15.897 2.14146 16.1374 2.38189C16.3778 2.62232 16.5129 2.94841 16.5129 3.28843V11.7499C16.513 11.9435 16.4692 12.1347 16.3848 12.309C16.3004 12.4833 16.1777 12.6362 16.0257 12.7563V12.8191H15.9385C15.7285 12.959 15.4816 13.0334 15.2292 13.033C14.9768 13.0325 14.7302 12.9572 14.5206 12.8165C11.3924 12.7601 8.24888 11.5435 5.77455 9.59093C3.24124 7.59095 1.31818 4.74483 0.905362 1.43973L0.724595 0ZM13.2193 10.1409C12.7655 8.74223 11.686 7.15121 10.0681 5.7461C8.32452 4.23329 6.11941 3.08074 3.80662 2.69997C4.42584 4.57432 5.69506 6.26276 7.36299 7.57942C9.07195 8.92684 11.1412 9.83452 13.2193 10.1409Z" fill="#FB662F"/>
<path id="Vector_3" fill-rule="evenodd" clip-rule="evenodd" d="M39.7024 1.46545L39.9357 2.89876C40.5191 6.49232 39.4524 10.1397 37.7075 12.9576C35.9922 15.7294 33.4332 17.9832 30.7653 18.4166L29.4999 18.6217L29.2948 17.3576C28.782 14.1974 29.4769 10.8064 31.0435 7.98589C32.6102 5.16541 35.114 2.81159 38.3088 1.87442L39.7024 1.46545ZM37.5306 4.93977C35.7806 5.85258 34.3166 7.37564 33.2845 9.23203C32.2281 11.1346 31.6614 13.3217 31.6935 15.4243C33.0012 14.7512 34.3986 13.4307 35.5268 11.6077C36.7422 9.64613 37.5255 7.28334 37.5319 4.94105" fill="#FB662F"/>
</g>
</svg>
