<svg width="46" height="46" viewBox="0 0 46 46" fill="none" xmlns="http://www.w3.org/2000/svg">
<g id="Group">
<path id="Vector" fill-rule="evenodd" clip-rule="evenodd" d="M21.6775 4.0414C20.1953 2.63077 18.0666 1.92929 15.2913 2.61033C14.609 1.67997 13.6937 0.945759 12.6375 0.481606C10.9304 -0.251819 8.78762 -0.236486 6.3714 1.15242C3.84403 2.33178 2.62634 4.06568 2.29029 5.88518C2.06285 7.12204 2.2609 8.29501 2.58673 9.22009C0.442675 11.0958 -0.202586 13.2373 0.10535 15.2549C0.372398 17.0003 1.3256 18.4914 2.2609 19.5034C2.09704 20.2071 2.08051 20.937 2.21235 21.6474C2.60845 21.3663 2.79628 21.236 3.22688 21.0609C3.92964 20.7747 4.50462 20.7415 5.14349 20.7415C7.15594 20.7415 8.31996 20.9753 10.2391 21.5081C11.3267 21.7988 12.3712 22.2318 13.3453 22.7961L13.7082 22.6402C14.1644 22.4424 14.6684 22.3821 15.1584 22.4665L19.6472 23.242C19.4741 22.3156 19.3746 21.377 19.3494 20.4348C19.3011 18.1943 19.8753 15.9842 21.0082 14.0505C22.1411 12.1169 23.7882 10.5354 25.7663 9.48203C25.2495 8.94166 24.623 8.51818 23.9289 8.24006C23.635 6.8946 22.9565 5.25909 21.6775 4.0414ZM9.12239 5.46864C9.27281 5.39419 9.43642 5.3501 9.60389 5.33889C9.77135 5.32769 9.93939 5.34959 10.0984 5.40334C10.2574 5.45709 10.4042 5.54164 10.5306 5.65216C10.6569 5.76268 10.7602 5.897 10.8346 6.04746L11.8453 8.09185L13.9063 5.88518C14.1404 5.65087 14.4563 5.51662 14.7875 5.51075C15.1187 5.50488 15.4392 5.62784 15.6814 5.85371C15.9237 6.07957 16.0688 6.39069 16.0861 6.72146C16.1035 7.05223 15.9917 7.37681 15.7743 7.62675L13.0566 10.5374L14.0826 12.6087L15.7833 11.0626C16.0355 10.8467 16.362 10.7375 16.6934 10.7581C17.0248 10.7787 17.3352 10.9275 17.5588 11.173C17.7823 11.4185 17.9016 11.7414 17.8912 12.0733C17.8808 12.4052 17.7416 12.7201 17.5031 12.9511L15.2607 14.9891L16.61 17.7158C16.7576 18.0193 16.7791 18.3689 16.6699 18.6882C16.5607 19.0076 16.3296 19.2707 16.027 19.4202C15.7244 19.5698 15.375 19.5935 15.055 19.4862C14.735 19.379 14.4704 19.1495 14.319 18.8479L12.9198 16.0202L10.4104 16.5275C10.0856 16.5778 9.75399 16.501 9.48438 16.3131C9.21478 16.1253 9.02791 15.8408 8.96261 15.5187C8.89731 15.1967 8.9586 14.8618 9.13374 14.5838C9.30888 14.3057 9.58441 14.1059 9.90309 14.0257L11.7481 13.6526L10.7311 11.5992L6.848 12.1832C6.67894 12.2158 6.50504 12.2138 6.33674 12.1775C6.16844 12.1412 6.00922 12.0713 5.86863 11.9719C5.72804 11.8725 5.60899 11.7457 5.51862 11.5992C5.42825 11.4526 5.36844 11.2893 5.34276 11.1191C5.31709 10.9488 5.32609 10.7751 5.36921 10.6085C5.41234 10.4418 5.48871 10.2855 5.59373 10.1491C5.69876 10.0127 5.83027 9.89887 5.98038 9.81454C6.13048 9.73021 6.29608 9.67709 6.46723 9.65836L9.54149 9.19581L8.54357 7.17826C8.39401 6.87473 8.37096 6.52427 8.47947 6.20376C8.58798 5.88326 8.8192 5.61888 9.12239 5.46864Z" fill="#FB662F"/>
<path id="Vector_2" fill-rule="evenodd" clip-rule="evenodd" d="M23.1738 23.8874L22.5247 23.7609C22.2934 23.1303 22.1247 22.4785 22.0213 21.8149L22.0021 21.7382C21.8718 21.2054 21.7849 20.7365 21.7772 20.3838C21.7494 19.0162 22.0108 17.6582 22.5444 16.3987C23.0779 15.1392 23.8715 14.0066 24.8732 13.0751C24.9516 13.001 25.0312 12.9367 25.1121 12.8822C27.6868 10.5822 31.2875 10.1823 34.0755 12.4643C34.0436 9.33132 35.3149 6.26985 38.3943 4.49379L39.474 6.36185C36.8661 7.86575 35.8963 10.6806 36.3282 13.6897C42.2761 11.7348 46.9053 17.3607 45.1676 23.8375C44.6301 25.8253 43.4939 27.5995 41.9132 28.9191L41.1338 28.647C38.8249 27.8458 35.918 26.876 33.5951 26.2359C31.336 25.6123 28.4292 24.9671 26.1037 24.4815C25.1282 24.2776 24.1516 24.0796 23.1738 23.8874ZM40.3186 17.8705C40.651 17.806 40.9954 17.876 41.2762 18.0653C41.557 18.2546 41.7512 18.5476 41.8161 18.8799C42.0499 20.044 41.9586 21.2501 41.5522 22.3658C41.1459 23.4815 40.4401 24.4637 39.5123 25.2047C39.2493 25.4182 38.9123 25.5185 38.5754 25.4835C38.2385 25.4485 37.9293 25.2811 37.7158 25.0182C37.5023 24.7552 37.402 24.4182 37.437 24.0813C37.472 23.7444 37.6394 23.4352 37.9024 23.2217C38.4697 22.7715 38.9013 22.173 39.1493 21.4926C39.3974 20.8122 39.4523 20.0764 39.3079 19.3667C39.2441 19.0347 39.3145 18.6909 39.5037 18.4107C39.6929 18.1305 39.9855 17.9367 40.3173 17.8718M5.41316 45.9962C9.24639 45.7828 11.6179 44.6929 13.0796 43.097C13.661 43.8764 14.6359 44.3287 15.6913 44.1626C17.0137 43.9539 18.3333 43.7277 19.6498 43.4841V37.4979H22.4992V42.9334C26.1024 42.2051 30.4851 41.2046 35.3162 39.8592V36.0758H38.1656V39.0401C40.1116 38.4613 42.1164 37.8288 44.1595 37.1389C44.6921 36.9764 45.1585 36.6471 45.4899 36.1996C45.8212 35.752 46.0001 35.2099 46.0001 34.653C46.0001 34.0961 45.8212 33.554 45.4899 33.1064C45.1585 32.6589 44.6921 32.3296 44.1595 32.1671C39.3755 30.5556 34.5241 29.1518 29.6187 27.9595V36.0758H26.7707V27.2887C22.0558 26.218 18.197 25.5382 15.6913 25.1421C15.2 25.0629 14.6963 25.1205 14.2356 25.3087C13.7749 25.4969 13.3749 25.8084 13.0796 26.209C11.6179 24.6119 9.24639 23.5219 5.41316 23.3086C5.2271 23.2997 5.04122 23.3293 4.86707 23.3954C4.69292 23.4615 4.53422 23.5627 4.40084 23.6927C4.26746 23.8227 4.16225 23.9788 4.09175 24.1512C4.02125 24.3236 3.98697 24.5087 3.99103 24.6949C4.02425 27.0115 4.16608 28.8514 4.64907 30.2863C3.08383 30.8792 1.60804 32.0752 0.258743 33.8755C-0.0862477 34.3355 -0.0862477 34.9705 0.258743 35.4305C1.59654 37.2155 3.06084 38.4076 4.61074 39.0044C4.19931 40.3971 4.03575 42.2243 3.99359 44.606C3.98902 44.7922 4.02281 44.9773 4.09283 45.1499C4.16286 45.3225 4.26764 45.4789 4.40066 45.6093C4.53368 45.7396 4.69209 45.8413 4.86605 45.9078C5.04002 45.9744 5.22581 46.0045 5.41188 45.9962M8.22164 31.9768L5.65721 32.9478C4.94679 33.2162 4.14947 33.7413 3.30616 34.6524C4.14053 35.5544 4.93018 36.0783 5.63421 36.3492L8.08492 37.2935L7.34128 39.8093C7.12278 40.5504 6.97584 41.565 6.8979 42.9884C9.64505 42.5667 10.8052 41.5483 11.4045 40.622C12.267 39.2893 12.5264 37.3446 12.5264 34.6524C12.5264 31.9602 12.267 30.0167 11.4045 28.684C10.804 27.7564 9.64122 26.738 6.89023 26.3151C6.96307 27.695 7.10745 28.6636 7.34767 29.3804L8.22164 31.9768Z" fill="#FB662F"/>
</g>
</svg>
